0
SECTION
2
HEADER
9
$INSUNITS
70
4
9
$ACADVER
1
AC1014
9
$HANDSEED
5
FFFF
0
ENDSEC
0
SECTION
2
TABLES
0
TABLE
2
VPORT
5
8
100
AcDbSymbolTable
0
ENDTAB
0
TABLE
2
LTYPE
5
5
100
AcDbSymbolTable
0
LTYPE
5
14
100
AcDbSymbolTableRecord
100
AcDbLinetypeTableRecord
2
BYBLOCK
70
0
0
LTYPE
5
15
100
AcDbSymbolTableRecord
100
AcDbLinetypeTableRecord
2
BYLAYER
70
0
0
ENDTAB
0
TABLE
2
LAYER
5
2
100
AcDbSymbolTable
70
2
0
LAYER
5
50
100
AcDbSymbolTableRecord
100
AcDbLayerTableRecord
2
0
70
0
6
CONTINUOUS
0
ENDTAB
0
TABLE
2
STYLE
5
3
100
AcDbSymbolTable
70
1
0
STYLE
5
11
100
AcDbSymbolTableRecord
100
AcDbTextStyleTableRecord
2
STANDARD
70
0
0
ENDTAB
0
TABLE
2
VIEW
5
6
100
AcDbSymbolTable
70
0
0
ENDTAB
0
TABLE
2
UCS
5
7
100
AcDbSymbolTable
70
0
0
ENDTAB
0
TABLE
2
APPID
5
9
100
AcDbSymbolTable
70
2
0
APPID
5
12
100
AcDbSymbolTableRecord
100
AcDbRegAppTableRecord
2
ACAD
70
0
0
ENDTAB
0
TABLE
2
DIMSTYLE
5
A
100
AcDbSymbolTable
70
1
0
ENDTAB
0
TABLE
2
BLOCK_RECORD
5
1
100
AcDbSymbolTable
70
1
0
BLOCK_RECORD
5
1F
100
AcDbSymbolTableRecord
100
AcDbBlockTableRecord
2
*MODEL_SPACE
0
BLOCK_RECORD
5
1B
100
AcDbSymbolTableRecord
100
AcDbBlockTableRecord
2
*PAPER_SPACE
0
ENDTAB
0
ENDSEC
0
SECTION
2
BLOCKS
0
BLOCK
5
20
100
AcDbEntity
100
AcDbBlockBegin
2
*MODEL_SPACE
0
ENDBLK
5
21
100
AcDbEntity
100
AcDbBlockEnd
0
BLOCK
5
1C
100
AcDbEntity
100
AcDbBlockBegin
2
*PAPER_SPACE
0
ENDBLK
5
1D
100
AcDbEntity
100
AcDbBlockEnd
0
ENDSEC
0
SECTION
2
ENTITIES
0
LWPOLYLINE
5
100
100
AcDbEntity
8
0
100
AcDbPolyline
90
116
70
1
43
0.0
10
141.232
20
-70.200700000000012
10
140.34930000000003
20
-70.200700000000012
10
140.34930000000003
20
-69.200299999999999
10
109.68199999999999
20
-69.200299999999999
10
109.68199999999999
20
-70.200700000000012
10
108.88100000000001
20
-70.200700000000012
10
108.88100000000001
20
-73.299900000000008
10
109.68199999999999
20
-73.299900000000008
10
109.68199999999999
20
-73.900800000000075
10
103.38030000000001
20
-73.900800000000004
10
103.38030000000001
20
-70.670600000000007
10
101.65530000000001
20
-70.670600000000007
10
101.65529999999998
20
-69.750100000000003
10
98.355299999999986
20
-69.750100000000003
10
98.355299999999986
20
-70.670600000000007
10
96.894000000000034
20
-70.670600000000007
10
96.894000000000005
20
-69.750100000000003
10
95.1053
20
-69.750100000000003
10
95.1053
20
-69.200299999999999
10
76.343000000000018
20
-69.200299999999999
10
76.343000000000018
20
-69.750100000000003
10
74.54929999999996
20
-69.750100000000003
10
74.54929999999996
20
-70.670600000000007
10
68.06734999999999
20
-70.670600000000107
10
68.06734999999999
20
-73.900800000000118
10
67.243249999999989
20
-73.900800000000118
10
67.243249999999989
20
-76.699560000000119
10
68.06734999999999
20
-76.699560000000119
10
68.06734999999999
20
-82.969630000000137
10
69.792349999999985
20
-82.969630000000137
10
69.792349999999985
20
-84.169900000000126
10
73.092949999999988
20
-84.169900000000126
10
73.092949999999988
20
-82.969630000000123
10
74.54929999999996
20
-82.969629999999995
10
74.54929999999996
20
-83.950790000000012
10
77.849299999999985
20
-83.950790000000012
10
77.849299999999985
20
-83.199759999999998
10
93.593000000000018
20
-83.199759999999998
10
93.593000000000032
20
-83.950790000000012
10
96.894000000000034
20
-83.950789999999984
10
96.894000000000034
20
-82.969629999999995
10
98.355299999999986
20
-82.969629999999995
10
98.3553
20
-83.950789999999984
10
101.65530000000001
20
-83.950790000000012
10
101.65530000000001
20
-82.969630000000024
10
103.38030000000001
20
-82.969630000000024
10
103.38030000000001
20
-78.500670000000071
10
109.68199999999999
20
-78.500670000000085
10
109.68199999999999
20
-79.100110000000001
10
108.88100000000001
20
-79.100110000000001
10
108.88100000000001
20
-82.200670000000002
10
109.68199999999999
20
-82.200670000000002
10
109.68199999999999
20
-83.199759999999998
10
140.34930000000003
20
-83.199759999999998
10
140.34930000000003
20
-82.969629999999995
10
141.232
20
-82.969630000000024
10
141.232
20
-83.950790000000012
10
144.53100000000003
20
-83.950789999999984
10
144.53100000000003
20
-82.969629999999995
10
145.99230000000003
20
-82.969629999999995
10
145.99230000000003
20
-83.950789999999984
10
149.29329999999999
20
-83.950790000000012
10
149.29329999999999
20
-83.199759999999998
10
165.03100000000003
20
-83.199759999999998
10
165.03100000000003
20
-83.950790000000012
10
168.33100000000002
20
-83.950789999999984
10
168.33100000000002
20
-82.969629999999995
10
169.79235
20
-82.969630000000052
10
169.79235
20
-84.169900000000055
10
173.09334999999999
20
-84.169900000000055
10
173.09334999999999
20
-82.969630000000052
10
174.81834999999995
20
-82.969630000000052
10
174.81834999999995
20
-78.500670000000014
10
183.50034999999997
20
-78.500670000000014
10
183.50034999999997
20
-79.100110000000043
10
182.69935000000001
20
-79.100110000000058
10
182.69935000000001
20
-82.200670000000059
10
183.50034999999997
20
-82.200670000000059
10
183.50034999999997
20
-83.199760000000055
10
188.84930000000003
20
-83.199760000000055
10
188.84930000000003
20
-83.950790000000012
10
192.14930000000004
20
-83.950790000000012
10
192.14930000000004
20
-83.19976000000004
10
197.49934999999999
20
-83.19976000000004
10
197.49934999999999
20
-82.200670000000031
10
198.30034999999998
20
-82.200670000000031
10
198.30034999999998
20
-79.100110000000029
10
197.49934999999999
20
-79.100110000000029
10
197.49934999999999
20
-73.298600000000022
10
198.30034999999998
20
-73.298600000000022
10
198.30034999999998
20
-70.200700000000012
10
197.49934999999999
20
-70.200700000000012
10
197.49934999999999
20
-69.200300000000013
10
183.50034999999997
20
-69.200300000000027
10
183.50034999999997
20
-70.200700000000026
10
182.69935000000001
20
-70.200700000000026
10
182.69935000000001
20
-73.298600000000022
10
183.50034999999997
20
-73.298600000000022
10
183.50034999999997
20
-73.90079999999999
10
174.81834999999995
20
-73.900800000000032
10
174.81834999999995
20
-70.670600000000036
10
173.0933
20
-70.670600000000007
10
173.0933
20
-69.750100000000003
10
169.79230000000001
20
-69.750100000000003
10
169.79230000000001
20
-70.670600000000007
10
168.33100000000002
20
-70.670600000000007
10
168.33100000000002
20
-69.750100000000003
10
166.54329999999999
20
-69.750100000000003
10
166.54329999999999
20
-69.200299999999999
10
147.78200000000001
20
-69.200299999999999
10
147.78200000000001
20
-69.750100000000003
10
145.99230000000003
20
-69.750100000000003
10
145.99230000000003
20
-70.670600000000007
10
144.53100000000003
20
-70.670600000000007
10
144.53100000000003
20
-69.750100000000003
10
141.232
20
-69.750100000000003
0
LWPOLYLINE
5
101
100
AcDbEntity
8
0
100
AcDbPolyline
90
28
70
1
43
0.0
10
246.92435000000003
20
-6.9995999999999992
10
267.42534999999998
20
-6.9995999999999992
10
267.42534999999998
20
-7.9697999999998199
10
270.72434999999996
20
-7.9697999999998199
10
270.72434999999996
20
-6.9995999999999992
10
273.69929999999999
20
-6.9995999999999992
10
273.69929999999999
20
-6.0006000000000004
10
274.50030000000004
20
-6.0006000000000004
10
274.50030000000004
20
-2.9000000000000092
10
273.69929999999999
20
-2.9000000000000092
10
273.69929999999999
20
2.8999999999999915
10
274.50030000000004
20
2.8999999999999915
10
274.50030000000004
20
5.999200000000009
10
273.69929999999999
20
5.999200000000009
10
273.69929999999999
20
6.9996999999999865
10
240.65030000000002
20
6.9996999999999865
10
240.65030000000002
20
5.999200000000009
10
239.84930000000003
20
5.999200000000009
10
239.84930000000003
20
2.8999999999999915
10
240.65030000000002
20
2.8999999999999915
10
240.65030000000002
20
-2.9000000000000092
10
239.84930000000003
20
-2.9000000000000092
10
239.84930000000003
20
-6.0006000000000004
10
240.65030000000002
20
-6.0006000000000004
10
240.65030000000002
20
-6.9995999999999992
10
243.62334999999999
20
-6.9995999999999992
10
243.62334999999999
20
-7.9697999999998377
10
246.92435000000003
20
-7.9697999999998377
0
LWPOLYLINE
5
102
100
AcDbEntity
8
0
100
AcDbPolyline
90
28
70
1
43
0.0
10
25.455549999999985
20
-64.149799999999999
10
30.811799999999991
20
-64.149799999999999
10
30.811799999999991
20
-63.150700000000001
10
31.611199999999997
20
-63.150700000000001
10
31.611199999999997
20
-60.0501
10
30.811799999999991
20
-60.0501
10
30.811799999999991
20
-54.249900000000004
10
31.611199999999997
20
-54.249900000000004
10
31.611199999999997
20
-51.150699999999993
10
30.811799999999991
20
-51.150699999999993
10
30.811799999999991
20
-50.150400000000005
10
-4.6186999999999845
20
-50.150400000000005
10
-4.6186999999999845
20
-51.150699999999993
10
-5.4195000000000082
20
-51.150699999999993
10
-5.4195000000000082
20
-54.249900000000004
10
-4.6186999999999845
20
-54.249900000000004
10
-4.6186999999999845
20
-60.0501
10
-5.4195000000000082
20
-60.0501
10
-5.4195000000000082
20
-63.150700000000001
10
-4.6186999999999845
20
-63.150700000000001
10
-4.6186999999999845
20
-64.149799999999999
10
-1.643560000000015
20
-64.149799999999999
10
-1.6435600000000161
20
-65.119900000000143
10
1.6554499999999972
20
-65.119900000000143
10
1.6554499999999983
20
-64.149799999999999
10
22.155149999999981
20
-64.149799999999999
10
22.155149999999981
20
-65.119900000000129
10
25.455549999999985
20
-65.119900000000129
0
LWPOLYLINE
5
103
100
AcDbEntity
8
0
100
AcDbPolyline
90
20
70
1
43
0.0
10
19.192349999999987
20
-83.199760000000182
10
35.574299999999994
20
-83.199759999999998
10
35.574299999999994
20
-82.200670000000002
10
36.373699999999964
20
-82.200670000000002
10
36.373699999999964
20
-79.100110000000001
10
35.574299999999994
20
-79.100110000000001
10
35.574299999999994
20
-73.299900000000008
10
36.373699999999964
20
-73.299900000000008
10
36.373699999999964
20
-70.200700000000012
10
35.574299999999994
20
-70.200700000000012
10
35.574299999999994
20
-69.200299999999999
10
19.192349999999987
20
-69.200300000000141
10
19.192349999999987
20
-70.200700000000154
10
18.393149999999991
20
-70.20070000000014
10
18.393149999999991
20
-73.298600000000135
10
19.192349999999987
20
-73.298600000000135
10
19.192349999999987
20
-79.100110000000157
10
18.393149999999991
20
-79.100110000000157
10
18.393149999999991
20
-82.200670000000159
10
19.192349999999987
20
-82.200670000000173
0
LWPOLYLINE
5
104
100
AcDbEntity
8
0
100
AcDbPolyline
90
20
70
1
43
0.0
10
59.387299999999989
20
-69.200299999999999
10
43.006349999999998
20
-69.200300000000126
10
43.006349999999998
20
-70.200700000000126
10
42.205549999999988
20
-70.200700000000126
10
42.205549999999988
20
-73.298600000000121
10
43.006349999999998
20
-73.298600000000135
10
43.006349999999998
20
-79.100110000000143
10
42.205549999999988
20
-79.100110000000143
10
42.205549999999988
20
-82.200670000000144
10
43.006349999999998
20
-82.200670000000159
10
43.006349999999998
20
-83.199760000000168
10
59.387299999999989
20
-83.199759999999998
10
59.387299999999989
20
-82.200670000000002
10
60.18630000000001
20
-82.200670000000002
10
60.18630000000001
20
-79.100110000000001
10
59.387299999999989
20
-79.100110000000001
10
59.387299999999989
20
-73.299900000000008
10
60.18630000000001
20
-73.299900000000008
10
60.18630000000001
20
-70.200700000000012
10
59.387299999999989
20
-70.200700000000012
0
LWPOLYLINE
5
105
100
AcDbEntity
8
0
100
AcDbPolyline
90
20
70
1
43
0.0
10
235.59934999999999
20
-79.100110000000001
10
235.59934999999999
20
-73.298599999999993
10
236.40035
20
-73.298599999999993
10
236.40035
20
-70.200699999999983
10
235.59934999999999
20
-70.200699999999983
10
235.59934999999999
20
-69.200299999999984
10
221.60034999999996
20
-69.200299999999984
10
221.60034999999996
20
-70.200699999999998
10
220.79935
20
-70.200699999999998
10
220.79935
20
-73.298599999999993
10
221.60034999999996
20
-73.298599999999993
10
221.60034999999996
20
-79.100110000000015
10
220.79935
20
-79.100110000000015
10
220.79935
20
-82.200670000000017
10
221.60034999999996
20
-82.200670000000017
10
221.60034999999996
20
-83.19976000000004
10
235.59934999999999
20
-83.199760000000026
10
235.59934999999999
20
-82.200670000000017
10
236.40035
20
-82.200670000000017
10
236.40035
20
-79.100110000000001
0
LWPOLYLINE
5
106
100
AcDbEntity
8
0
100
AcDbPolyline
90
20
70
1
43
0.0
10
221.31235000000001
20
-63.150699999999986
10
222.11134999999999
20
-63.150699999999979
10
222.11134999999999
20
-60.050099999999972
10
221.31235000000001
20
-60.050099999999972
10
221.31235000000001
20
-54.249899999999954
10
222.11134999999999
20
-54.249899999999954
10
222.11134999999999
20
-51.150699999999951
10
221.31235000000001
20
-51.150699999999951
10
221.31235000000001
20
-50.150399999999955
10
207.31235000000001
20
-50.150399999999962
10
207.31235000000001
20
-51.150699999999958
10
206.51134999999996
20
-51.150699999999965
10
206.51134999999996
20
-54.249899999999975
10
207.31235000000001
20
-54.249899999999975
10
207.31235000000001
20
-60.050099999999986
10
206.51134999999996
20
-60.050099999999986
10
206.51134999999996
20
-63.150699999999993
10
207.31235000000001
20
-63.150699999999993
10
207.31235000000001
20
-64.149799999999985
10
221.31235000000001
20
-64.149799999999985
0
LWPOLYLINE
5
107
100
AcDbEntity
8
0
100
AcDbPolyline
90
20
70
1
43
0.0
10
183.21234999999999
20
-60.0501
10
183.21234999999999
20
-54.249899999999997
10
184.01134999999996
20
-54.249899999999982
10
184.01134999999996
20
-51.150699999999972
10
183.21234999999999
20
-51.150699999999972
10
183.21234999999999
20
-50.150399999999983
10
169.21234999999996
20
-50.150399999999998
10
169.21234999999996
20
-51.150699999999993
10
168.41134999999994
20
-51.150699999999993
10
168.41134999999994
20
-54.249899999999997
10
169.21234999999996
20
-54.249899999999997
10
169.21234999999996
20
-60.050100000000015
10
168.41134999999994
20
-60.050100000000015
10
168.41134999999994
20
-63.150700000000022
10
169.21234999999996
20
-63.150700000000015
10
169.21234999999996
20
-64.149800000000027
10
183.21234999999999
20
-64.149800000000013
10
183.21234999999999
20
-63.150700000000015
10
184.01134999999996
20
-63.150700000000015
10
184.01134999999996
20
-60.0501
0
LWPOLYLINE
5
108
100
AcDbEntity
8
0
100
AcDbPolyline
90
20
70
1
43
0.0
10
131.11234999999999
20
-51.150700000000015
10
130.31135
20
-51.150700000000022
10
130.31135
20
-54.249900000000025
10
131.11234999999999
20
-54.249900000000025
10
131.11234999999999
20
-60.050100000000043
10
130.31135
20
-60.050100000000043
10
130.31135
20
-63.15070000000005
10
131.11234999999999
20
-63.15070000000005
10
131.11234999999999
20
-64.149800000000056
10
145.11234999999999
20
-64.149800000000042
10
145.11234999999999
20
-63.150700000000043
10
145.91135
20
-63.150700000000043
10
145.91135
20
-60.050100000000029
10
145.11234999999999
20
-60.050100000000022
10
145.11234999999999
20
-54.249900000000011
10
145.91135
20
-54.249900000000018
10
145.91135
20
-51.150700000000015
10
145.11234999999999
20
-51.150700000000001
10
145.11234999999999
20
-50.150400000000005
10
131.11234999999999
20
-50.150400000000019
0
LWPOLYLINE
5
109
100
AcDbEntity
8
0
100
AcDbPolyline
90
20
70
1
43
0.0
10
93.012349999999998
20
-64.149800000000084
10
107.01235
20
-64.14980000000007
10
107.01235
20
-63.150700000000064
10
107.81134999999999
20
-63.150700000000064
10
107.81134999999999
20
-60.050100000000057
10
107.01235
20
-60.050100000000057
10
107.01235
20
-54.249900000000046
10
107.81134999999999
20
-54.249900000000039
10
107.81134999999999
20
-51.150700000000029
10
107.01235
20
-51.150700000000029
10
107.01235
20
-50.150400000000033
10
93.012349999999998
20
-50.150400000000054
10
93.012349999999998
20
-51.150700000000043
10
92.21135000000001
20
-51.150700000000036
10
92.21135000000001
20
-54.249900000000046
10
93.012349999999998
20
-54.249900000000046
10
93.012349999999998
20
-60.050100000000064
10
92.21135000000001
20
-60.050100000000064
10
92.21135000000001
20
-63.150700000000072
10
93.012349999999998
20
-63.150700000000064
0
LWPOLYLINE
5
110
100
AcDbEntity
8
0
100
AcDbPolyline
90
20
70
1
43
0.0
10
54.111749999999986
20
-63.150700000000114
10
54.91255000000001
20
-63.1507000000001
10
54.91255000000001
20
-64.149800000000099
10
68.911849999999987
20
-64.149800000000099
10
68.911849999999987
20
-63.150700000000093
10
69.711249999999993
20
-63.150700000000093
10
69.711249999999993
20
-60.050100000000086
10
68.911849999999987
20
-60.050100000000072
10
68.911849999999987
20
-54.249900000000068
10
69.711249999999993
20
-54.249900000000075
10
69.711249999999993
20
-51.150700000000064
10
68.911849999999987
20
-51.150700000000057
10
68.911849999999987
20
-50.150400000000069
10
54.91255000000001
20
-50.150400000000076
10
54.91255000000001
20
-51.150700000000072
10
54.111749999999986
20
-51.150700000000072
10
54.111749999999986
20
-54.249900000000082
10
54.91255000000001
20
-54.249900000000082
10
54.91255000000001
20
-60.050100000000093
10
54.111749999999986
20
-60.0501000000001
0
LWPOLYLINE
5
111
100
AcDbEntity
8
0
100
AcDbPolyline
90
20
70
1
43
0.0
10
54.624349999999993
20
-25.050600000000021
10
55.425150000000002
20
-25.050600000000021
10
55.425150000000002
20
-21.95000000000001
10
54.624349999999993
20
-21.950000000000017
10
54.624349999999993
20
-16.150000000000002
10
55.425150000000002
20
-16.149999999999999
10
55.425150000000002
20
-13.050799999999994
10
54.624349999999993
20
-13.050799999999995
10
54.624349999999993
20
-12.050299999999998
10
40.625050000000002
20
-12.050300000000005
10
40.625050000000002
20
-13.050800000000002
10
39.824249999999992
20
-13.050800000000004
10
39.824249999999992
20
-16.150000000000013
10
40.625050000000002
20
-16.150000000000006
10
40.625050000000002
20
-21.950000000000021
10
39.824249999999992
20
-21.950000000000021
10
39.824249999999992
20
-25.050600000000031
10
40.625050000000002
20
-25.050600000000031
10
40.625050000000002
20
-26.049600000000027
10
54.624349999999993
20
-26.049600000000019
0
LWPOLYLINE
5
112
100
AcDbEntity
8
0
100
AcDbPolyline
90
20
70
1
43
0.0
10
116.02434999999998
20
-25.050599999999974
10
116.82535
20
-25.050599999999974
10
116.82535
20
-26.049599999999977
10
130.82434999999998
20
-26.049599999999966
10
130.82434999999998
20
-25.050599999999967
10
131.62535
20
-25.050599999999967
10
131.62535
20
-21.94999999999996
10
130.82434999999998
20
-21.949999999999964
10
130.82434999999998
20
-16.149999999999949
10
131.62535
20
-16.149999999999945
10
131.62535
20
-13.05079999999994
10
130.82434999999998
20
-13.050799999999942
10
130.82434999999998
20
-12.050299999999943
10
116.82535
20
-12.050299999999952
10
116.82535
20
-13.050799999999949
10
116.02434999999998
20
-13.050799999999951
10
116.02434999999998
20
-16.149999999999956
10
116.82535
20
-16.149999999999952
10
116.82535
20
-21.949999999999967
10
116.02434999999998
20
-21.949999999999967
0
LWPOLYLINE
5
113
100
AcDbEntity
8
0
100
AcDbPolyline
90
20
70
1
43
0.0
10
207.02434999999997
20
-16.149999999999885
10
207.82534999999999
20
-16.149999999999885
10
207.82534999999999
20
-13.050799999999878
10
207.02434999999997
20
-13.05079999999988
10
207.02434999999997
20
-12.05029999999989
10
193.02535
20
-12.050299999999899
10
193.02535
20
-13.050799999999896
10
192.22435000000002
20
-13.050799999999898
10
192.22435000000002
20
-16.149999999999906
10
193.02535
20
-16.149999999999899
10
193.02535
20
-21.949999999999914
10
192.22435000000002
20
-21.949999999999914
10
192.22435000000002
20
-25.050599999999925
10
193.02535
20
-25.050599999999925
10
193.02535
20
-26.049599999999913
10
207.02434999999997
20
-26.049599999999906
10
207.02434999999997
20
-25.050599999999903
10
207.82534999999999
20
-25.050599999999903
10
207.82534999999999
20
-21.949999999999896
10
207.02434999999997
20
-21.9499999999999
0
LWPOLYLINE
5
114
100
AcDbEntity
8
0
100
AcDbPolyline
90
20
70
1
43
0.0
10
292.74935000000005
20
-63.150699999999929
10
293.55034999999998
20
-63.150699999999929
10
293.55034999999998
20
-60.050099999999922
10
292.74935000000005
20
-60.050099999999915
10
292.74935000000005
20
-54.249899999999904
10
293.55034999999998
20
-54.249899999999911
10
293.55034999999998
20
-51.150699999999901
10
292.74935000000005
20
-51.150699999999894
10
292.74935000000005
20
-50.150399999999905
10
278.75035000000003
20
-50.150399999999912
10
278.75035000000003
20
-51.150699999999901
10
277.94934999999998
20
-51.150699999999915
10
277.94934999999998
20
-54.249899999999926
10
278.75035000000003
20
-54.249899999999926
10
278.75035000000003
20
-60.050099999999929
10
277.94934999999998
20
-60.050099999999929
10
277.94934999999998
20
-63.150699999999944
10
278.75035000000003
20
-63.150699999999944
10
278.75035000000003
20
-64.149799999999942
10
292.74935000000005
20
-64.149799999999942
0
LWPOLYLINE
5
115
100
AcDbEntity
8
0
100
AcDbPolyline
90
20
70
1
43
0.0
10
163.64935
20
-2.899999999999896
10
163.64935
20
-6.0005999999998947
10
164.45034999999996
20
-6.000599999999892
10
164.45034999999996
20
-6.9995999999998935
10
178.44934999999998
20
-6.9995999999998855
10
178.44934999999998
20
-6.0005999999998858
10
179.25034999999997
20
-6.0005999999998831
10
179.25034999999997
20
-2.8999999999998844
10
178.44934999999998
20
-2.8999999999998853
10
178.44934999999998
20
2.9000000000001331
10
179.25034999999997
20
2.9000000000001269
10
179.25034999999997
20
5.999200000000152
10
178.44934999999998
20
5.9992000000001671
10
178.44934999999998
20
6.9997000000001384
10
164.45034999999996
20
6.9997000000001126
10
164.45034999999996
20
5.9992000000001342
10
163.64935
20
5.9992000000001404
10
163.64935
20
2.9000000000001154
10
164.45034999999996
20
2.9000000000001118
10
164.45034999999996
20
-2.8999999999999022
0
LWPOLYLINE
5
116
100
AcDbEntity
8
0
100
AcDbPolyline
90
20
70
1
43
0.0
10
87.449250000000006
20
5.9992000000000871
10
87.449250000000006
20
2.9000000000000621
10
88.248650000000012
20
2.9000000000000585
10
88.248650000000012
20
-2.8999999999999555
10
87.449250000000006
20
-2.8999999999999493
10
87.449250000000006
20
-6.000599999999948
10
88.248650000000012
20
-6.0005999999999453
10
88.248650000000012
20
-6.9995999999999468
10
102.24935000000001
20
-6.999599999999937
10
102.24935000000001
20
-6.0005999999999391
10
103.04834999999999
20
-6.0005999999999364
10
103.04834999999999
20
-2.8999999999999377
10
102.24935000000001
20
-2.8999999999999342
10
102.24935000000001
20
2.9000000000000798
10
103.04834999999999
20
2.9000000000000736
10
103.04834999999999
20
5.9992000000000987
10
102.24935000000001
20
5.9992000000001138
10
102.24935000000001
20
6.9997000000000851
10
88.248650000000012
20
6.9997000000000593
10
88.248650000000012
20
5.9992000000000809
0
LWPOLYLINE
5
117
100
AcDbEntity
8
0
100
AcDbPolyline
90
20
70
1
43
0.0
10
26.850149999999982
20
2.9000000000000026
10
26.850149999999982
20
5.9992000000000276
10
26.049349999999993
20
5.9992000000000427
10
26.049349999999993
20
6.9997000000000318
10
12.050049999999981
20
6.999700000000006
10
12.050049999999981
20
5.9992000000000276
10
11.249349999999989
20
5.9992000000000338
10
11.249349999999989
20
2.9000000000000088
10
12.050049999999981
20
2.9000000000000097
10
12.050049999999981
20
-2.9000000000000088
10
11.249349999999989
20
-2.9000000000000026
10
11.249349999999989
20
-6.0006000000000013
10
12.050049999999981
20
-6.0005999999999986
10
12.050049999999981
20
-6.9996
10
26.049349999999993
20
-6.9995999999999921
10
26.049349999999993
20
-6.0005999999999924
10
26.850149999999982
20
-6.0006000000000075
10
26.850149999999982
20
-2.9000000000000088
10
26.049349999999993
20
-2.9000000000000052
10
26.049349999999993
20
2.9000000000000088
0
LWPOLYLINE
5
118
100
AcDbEntity
8
0
100
AcDbPolyline
90
20
70
1
43
0.0
10
69.20004999999999
20
-6.0005999999999631
10
69.20004999999999
20
-6.9995999999999556
10
83.199349999999995
20
-6.9995999999999476
10
83.199349999999995
20
-6.000599999999948
10
83.998749999999973
20
-6.0005999999999542
10
83.998749999999973
20
-2.8999999999999555
10
83.199349999999995
20
-2.8999999999999519
10
83.199349999999995
20
2.9000000000000621
10
83.998749999999973
20
2.9000000000000625
10
83.998749999999973
20
5.9992000000000809
10
83.199349999999995
20
5.999200000000096
10
83.199349999999995
20
6.9997000000000673
10
69.20004999999999
20
6.9997000000000416
10
69.20004999999999
20
5.9992000000000631
10
68.399249999999995
20
5.9992000000000694
10
68.399249999999995
20
2.9000000000000443
10
69.20004999999999
20
2.9000000000000408
10
69.20004999999999
20
-2.8999999999999733
10
68.399249999999995
20
-2.899999999999967
10
68.399249999999995
20
-6.0005999999999657
0
LWPOLYLINE
5
119
100
AcDbEntity
8
0
100
AcDbPolyline
90
20
70
1
43
0.0
10
160.20034999999996
20
2.9000000000001092
10
160.20035000000001
20
5.9992000000001342
10
159.39935
20
5.9992000000001493
10
159.39935
20
6.9997000000001206
10
145.40035
20
6.9997000000000948
10
145.40035
20
5.9992000000001164
10
144.59934999999999
20
5.9992000000001227
10
144.59934999999999
20
2.9000000000000976
10
145.40035
20
2.9000000000000985
10
145.40035
20
-2.89999999999992
10
144.59934999999999
20
-2.8999999999999049
10
144.59934999999999
20
-6.0005999999999036
10
145.40035
20
-6.0005999999999009
10
145.40035
20
-6.9995999999999023
10
159.39935
20
-6.9995999999998944
10
159.39934999999997
20
-6.0005999999998947
10
160.20034999999996
20
-6.0005999999999009
10
160.20035000000001
20
-2.8999999999999022
10
159.39935
20
-2.8999999999998987
10
159.39934999999997
20
2.9000000000001154
0
LWPOLYLINE
5
120
100
AcDbEntity
8
0
100
AcDbPolyline
90
20
70
1
43
0.0
10
221.60034999999996
20
2.9000000000001473
10
221.60034999999996
20
-2.8999999999998667
10
220.79935
20
-2.8999999999998516
10
220.79935
20
-6.0005999999998503
10
221.60034999999996
20
-6.0005999999998476
10
221.60034999999996
20
-6.9995999999998491
10
235.59934999999999
20
-6.9995999999998411
10
235.59934999999999
20
-6.0005999999998414
10
236.40035
20
-6.0005999999998405
10
236.40035
20
-2.8999999999998489
10
235.59934999999999
20
-2.8999999999998454
10
235.59934999999999
20
2.9000000000001687
10
236.40035
20
2.9000000000001624
10
236.40035
20
5.9992000000001875
10
235.59934999999999
20
5.9992000000002026
10
235.59934999999999
20
6.9997000000001739
10
221.60034999999996
20
6.9997000000001481
10
221.60034999999996
20
5.9992000000001697
10
220.79935
20
5.9992000000001759
10
220.79935
20
2.9000000000001509
0
LWPOLYLINE
5
121
100
AcDbEntity
8
0
100
AcDbPolyline
90
20
70
1
43
0.0
10
278.75035000000003
20
-35.199999999999875
10
278.75035000000003
20
-40.999999999999886
10
277.94934999999998
20
-40.999999999999886
10
277.94934999999998
20
-44.100599999999901
10
278.75035000000003
20
-44.100599999999901
10
278.75035000000003
20
-45.099599999999896
10
292.74935000000005
20
-45.099599999999889
10
292.74935000000005
20
-44.100599999999879
10
293.55034999999998
20
-44.100599999999879
10
293.55034999999998
20
-40.999999999999872
10
292.74935000000005
20
-40.999999999999872
10
292.74935000000005
20
-35.199999999999854
10
293.55034999999998
20
-35.199999999999861
10
293.55034999999998
20
-32.100799999999865
10
292.74935000000005
20
-32.10079999999985
10
292.74935000000005
20
-31.100299999999859
10
278.75035000000003
20
-31.100299999999876
10
278.75035000000003
20
-32.100799999999879
10
277.94934999999998
20
-32.100799999999872
10
277.94934999999998
20
-35.199999999999875
0
LWPOLYLINE
5
122
100
AcDbEntity
8
0
100
AcDbPolyline
90
20
70
1
43
0.0
10
273.69935000000004
20
-51.150699999999915
10
273.69935000000004
20
-50.150399999999912
10
259.70035000000001
20
-50.150399999999927
10
259.70035000000001
20
-51.150699999999922
10
258.89934999999997
20
-51.150699999999922
10
258.89934999999997
20
-54.249899999999933
10
259.70035000000001
20
-54.24989999999994
10
259.70035000000001
20
-60.050099999999951
10
258.89934999999997
20
-60.050099999999951
10
258.89934999999997
20
-63.150699999999951
10
259.70035000000001
20
-63.150699999999951
10
259.70035000000001
20
-64.149799999999956
10
273.69935000000004
20
-64.149799999999956
10
273.69935000000004
20
-63.150699999999951
10
274.50035000000003
20
-63.150699999999944
10
274.50035000000003
20
-60.050099999999929
10
273.69935000000004
20
-60.050099999999929
10
273.69935000000004
20
-54.249899999999926
10
274.50035000000003
20
-54.249899999999926
10
274.50035000000003
20
-51.150699999999915
0
LWPOLYLINE
5
123
100
AcDbEntity
8
0
100
AcDbPolyline
90
20
70
1
43
0.0
10
226.87535
20
-16.149999999999874
10
226.87535
20
-13.050799999999869
10
226.07434999999998
20
-13.050799999999871
10
226.07434999999998
20
-12.050299999999872
10
212.07534999999996
20
-12.050299999999881
10
212.07534999999996
20
-13.050799999999878
10
211.27434999999997
20
-13.05079999999988
10
211.27434999999997
20
-16.149999999999885
10
212.07534999999996
20
-16.149999999999885
10
212.07534999999996
20
-21.949999999999896
10
211.27434999999997
20
-21.949999999999896
10
211.27434999999997
20
-25.050599999999903
10
212.07534999999996
20
-25.050599999999903
10
212.07534999999996
20
-26.049599999999906
10
226.07434999999998
20
-26.049599999999895
10
226.07434999999998
20
-25.050599999999896
10
226.87535
20
-25.050599999999896
10
226.87535
20
-21.949999999999889
10
226.07434999999998
20
-21.949999999999893
10
226.07434999999998
20
-16.149999999999878
0
LWPOLYLINE
5
124
100
AcDbEntity
8
0
100
AcDbPolyline
90
20
70
1
43
0.0
10
135.87535
20
-25.05059999999996
10
135.87535
20
-26.049599999999955
10
149.87434999999999
20
-26.049599999999948
10
149.87434999999999
20
-25.05059999999995
10
150.67534999999998
20
-25.05059999999995
10
150.67534999999998
20
-21.949999999999939
10
149.87434999999999
20
-21.949999999999946
10
149.87434999999999
20
-16.149999999999931
10
150.67534999999998
20
-16.149999999999931
10
150.67534999999998
20
-13.050799999999922
10
149.87434999999999
20
-13.050799999999924
10
149.87434999999999
20
-12.050299999999925
10
135.87535
20
-12.050299999999934
10
135.87535
20
-13.050799999999931
10
135.07434999999998
20
-13.050799999999933
10
135.07434999999998
20
-16.149999999999942
10
135.87535
20
-16.149999999999935
10
135.87535
20
-21.94999999999995
10
135.07434999999998
20
-21.94999999999995
10
135.07434999999998
20
-25.05059999999996
0
LWPOLYLINE
5
125
100
AcDbEntity
8
0
100
AcDbPolyline
90
20
70
1
43
0.0
10
74.475149999999985
20
-16.149999999999981
10
74.475149999999985
20
-13.050799999999976
10
73.67434999999999
20
-13.050799999999978
10
73.67434999999999
20
-12.050299999999979
10
59.675050000000013
20
-12.050299999999988
10
59.675050000000013
20
-13.050799999999985
10
58.874249999999989
20
-13.050799999999986
10
58.874249999999989
20
-16.149999999999991
10
59.675050000000013
20
-16.149999999999991
10
59.675050000000013
20
-21.950000000000003
10
58.874249999999989
20
-21.950000000000003
10
58.874249999999989
20
-25.05060000000001
10
59.675050000000013
20
-25.05060000000001
10
59.675050000000013
20
-26.049600000000012
10
73.67434999999999
20
-26.049600000000002
10
73.67434999999999
20
-25.050600000000003
10
74.475149999999985
20
-25.050600000000003
10
74.475149999999985
20
-21.949999999999996
10
73.67434999999999
20
-21.949999999999999
10
73.67434999999999
20
-16.149999999999984
0
LWPOLYLINE
5
126
100
AcDbEntity
8
0
100
AcDbPolyline
90
20
70
1
43
0.0
10
-4.6186999999999845
20
-45.099600000000002
10
14.143249999999998
20
-45.099600000000095
10
14.143249999999998
20
-44.100600000000085
10
14.94254999999999
20
-44.100600000000085
10
14.94254999999999
20
-41.000000000000078
10
14.143249999999998
20
-41.000000000000071
10
14.143249999999998
20
-35.20000000000006
10
14.94254999999999
20
-35.200000000000067
10
14.94254999999999
20
-32.100800000000064
10
14.143249999999998
20
-32.100800000000056
10
14.143249999999998
20
-31.100300000000054
10
-4.6186999999999845
20
-31.100300000000001
10
-4.6186999999999845
20
-32.100800000000007
10
-5.4195000000000082
20
-32.100800000000007
10
-5.4195000000000082
20
-35.199999999999996
10
-4.6186999999999845
20
-35.199999999999996
10
-4.6186999999999845
20
-41
10
-5.4195000000000082
20
-41
10
-5.4195000000000082
20
-44.1006
10
-4.6186999999999845
20
-44.1006
0
LWPOLYLINE
5
127
100
AcDbEntity
8
0
100
AcDbPolyline
90
20
70
1
43
0.0
10
59.386849999999995
20
-45.099600000000059
10
59.386849999999995
20
-44.10060000000005
10
60.186249999999987
20
-44.10060000000005
10
60.186249999999987
20
-41.000000000000043
10
59.386849999999995
20
-41.000000000000028
10
59.386849999999995
20
-35.200000000000024
10
60.186249999999987
20
-35.200000000000031
10
60.186249999999987
20
-32.100800000000035
10
59.386849999999995
20
-32.100800000000035
10
59.386849999999995
20
-31.100300000000026
10
45.387550000000005
20
-31.100300000000047
10
45.387550000000005
20
-32.100800000000049
10
44.586749999999995
20
-32.100800000000042
10
44.586749999999995
20
-35.200000000000038
10
45.387550000000005
20
-35.200000000000045
10
45.387550000000005
20
-41.000000000000057
10
44.586749999999995
20
-41.000000000000057
10
44.586749999999995
20
-44.100600000000071
10
45.387550000000005
20
-44.100600000000071
10
45.387550000000005
20
-45.099600000000066
0
LWPOLYLINE
5
128
100
AcDbEntity
8
0
100
AcDbPolyline
90
20
70
1
43
0.0
10
83.487549999999999
20
-35.20000000000001
10
83.487549999999999
20
-41.000000000000028
10
82.686749999999989
20
-41.000000000000028
10
82.686749999999989
20
-44.100600000000028
10
83.487549999999999
20
-44.100600000000028
10
83.487549999999999
20
-45.099600000000038
10
97.487350000000021
20
-45.099600000000031
10
97.487350000000021
20
-44.100600000000021
10
98.286349999999999
20
-44.100600000000021
10
98.286349999999999
20
-41.000000000000014
10
97.487350000000021
20
-41.000000000000014
10
97.487350000000021
20
-35.199999999999996
10
98.286349999999999
20
-35.200000000000003
10
98.286349999999999
20
-32.100800000000007
10
97.487350000000021
20
-32.100799999999992
10
97.487350000000021
20
-31.10029999999999
10
83.487549999999999
20
-31.100300000000011
10
83.487549999999999
20
-32.100800000000021
10
82.686749999999989
20
-32.100800000000014
10
82.686749999999989
20
-35.200000000000003
0
LWPOLYLINE
5
129
100
AcDbEntity
8
0
100
AcDbPolyline
90
20
70
1
43
0.0
10
135.58734999999999
20
-44.1006
10
136.38634999999999
20
-44.1006
10
136.38634999999999
20
-40.999999999999986
10
135.58734999999999
20
-40.999999999999979
10
135.58734999999999
20
-35.199999999999967
10
136.38634999999999
20
-35.199999999999974
10
136.38634999999999
20
-32.100799999999978
10
135.58734999999999
20
-32.100799999999971
10
135.58734999999999
20
-31.100299999999965
10
121.58734999999999
20
-31.100299999999983
10
121.58734999999999
20
-32.100799999999985
10
120.78635
20
-32.100799999999978
10
120.78635
20
-35.199999999999974
10
121.58734999999999
20
-35.199999999999982
10
121.58734999999999
20
-41
10
120.78635
20
-41
10
120.78635
20
-44.100600000000007
10
121.58734999999999
20
-44.100600000000007
10
121.58734999999999
20
-45.099600000000009
10
135.58734999999999
20
-45.099600000000002
0
LWPOLYLINE
5
130
100
AcDbEntity
8
0
100
AcDbPolyline
90
20
70
1
43
0.0
10
158.88634999999996
20
-40.999999999999972
10
158.88634999999996
20
-44.100599999999979
10
159.68735000000001
20
-44.100599999999979
10
159.68734999999998
20
-45.099599999999988
10
173.68735000000001
20
-45.099599999999981
10
173.68735000000001
20
-44.100599999999972
10
174.48634999999996
20
-44.100599999999972
10
174.48634999999996
20
-40.999999999999957
10
173.68735000000001
20
-40.999999999999957
10
173.68735000000001
20
-35.199999999999946
10
174.48634999999996
20
-35.199999999999953
10
174.48634999999996
20
-32.10079999999995
10
173.68735000000001
20
-32.100799999999943
10
173.68735000000001
20
-31.10029999999994
10
159.68735000000001
20
-31.100299999999955
10
159.68735000000001
20
-32.100799999999964
10
158.88634999999996
20
-32.10079999999995
10
158.88634999999996
20
-35.199999999999953
10
159.68735000000001
20
-35.199999999999953
10
159.68735000000001
20
-40.999999999999972
0
LWPOLYLINE
5
131
100
AcDbEntity
8
0
100
AcDbPolyline
90
20
70
1
43
0.0
10
211.78735
20
-31.100299999999912
10
197.78735
20
-31.10029999999993
10
197.78735
20
-32.100799999999936
10
196.98634999999999
20
-32.100799999999921
10
196.98634999999999
20
-35.199999999999925
10
197.78735
20
-35.199999999999932
10
197.78735
20
-40.999999999999943
10
196.98634999999999
20
-40.999999999999943
10
196.98634999999999
20
-44.10059999999995
10
197.78735
20
-44.10059999999995
10
197.78735
20
-45.09959999999996
10
211.78735
20
-45.099599999999953
10
211.78735
20
-44.100599999999943
10
212.58634999999998
20
-44.100599999999943
10
212.58634999999998
20
-40.999999999999936
10
211.78735
20
-40.999999999999929
10
211.78735
20
-35.199999999999918
10
212.58634999999998
20
-35.199999999999925
10
212.58634999999998
20
-32.100799999999921
10
211.78735
20
-32.100799999999914
0
LWPOLYLINE
5
132
100
AcDbEntity
8
0
100
AcDbPolyline
90
20
70
1
43
0.0
10
239.84935000000002
20
-70.200699999999983
10
239.84935000000002
20
-73.298599999999979
10
240.65034999999997
20
-73.298599999999979
10
240.65034999999997
20
-79.100110000000001
10
239.84935000000002
20
-79.100110000000001
10
239.84935000000002
20
-82.200670000000002
10
240.65034999999997
20
-82.200670000000002
10
240.65034999999997
20
-83.199760000000026
10
254.64935
20
-83.199759999999998
10
254.64935
20
-82.200670000000002
10
255.45034999999999
20
-82.200670000000002
10
255.45034999999999
20
-79.100109999999987
10
254.64935
20
-79.100109999999987
10
254.64935
20
-73.298599999999979
10
255.45034999999999
20
-73.298599999999979
10
255.45034999999999
20
-70.200699999999969
10
254.64935
20
-70.200699999999983
10
254.64935
20
-69.20029999999997
10
240.65034999999997
20
-69.200299999999984
10
240.65034999999997
20
-70.200699999999983
0
LWPOLYLINE
5
133
100
AcDbEntity
8
0
100
AcDbPolyline
90
20
70
1
43
0.0
10
201.74935000000002
20
-73.298600000000022
10
202.55034999999995
20
-73.298600000000008
10
202.55034999999995
20
-79.100110000000029
10
201.74935000000002
20
-79.100110000000029
10
201.74935000000002
20
-82.200670000000031
10
202.55034999999995
20
-82.200670000000031
10
202.55034999999995
20
-83.19976000000004
10
216.54934999999998
20
-83.199760000000026
10
216.54934999999998
20
-82.200670000000017
10
217.35034999999999
20
-82.200670000000017
10
217.35034999999999
20
-79.100110000000015
10
216.54934999999998
20
-79.100110000000015
10
216.54934999999998
20
-73.298599999999993
10
217.35034999999999
20
-73.298600000000008
10
217.35034999999999
20
-70.200700000000012
10
216.54934999999998
20
-70.200700000000012
10
216.54934999999998
20
-69.200299999999999
10
202.55034999999995
20
-69.200299999999999
10
202.55034999999995
20
-70.200700000000012
10
201.74935000000002
20
-70.200700000000012
0
LWPOLYLINE
5
134
100
AcDbEntity
8
0
100
AcDbPolyline
90
20
70
1
43
0.0
10
216.03634999999997
20
-44.100599999999943
10
216.83734999999999
20
-44.100599999999943
10
216.83734999999999
20
-45.099599999999938
10
230.83734999999996
20
-45.099599999999931
10
230.83734999999996
20
-44.100599999999929
10
231.63634999999996
20
-44.100599999999929
10
231.63634999999996
20
-40.999999999999915
10
230.83734999999996
20
-40.999999999999908
10
230.83734999999996
20
-35.199999999999896
10
231.63634999999996
20
-35.199999999999903
10
231.63634999999996
20
-32.100799999999907
10
230.83734999999996
20
-32.1007999999999
10
230.83734999999996
20
-31.100299999999905
10
216.83734999999999
20
-31.100299999999919
10
216.83734999999999
20
-32.100799999999921
10
216.03634999999997
20
-32.100799999999914
10
216.03634999999997
20
-35.199999999999918
10
216.83734999999999
20
-35.199999999999918
10
216.83734999999999
20
-40.999999999999936
10
216.03634999999997
20
-40.999999999999936
0
LWPOLYLINE
5
135
100
AcDbEntity
8
0
100
AcDbPolyline
90
20
70
1
43
0.0
10
178.73734999999996
20
-45.099599999999981
10
192.73734999999999
20
-45.099599999999967
10
192.73734999999999
20
-44.10059999999995
10
193.53634999999997
20
-44.10059999999995
10
193.53634999999997
20
-40.99999999999995
10
192.73734999999999
20
-40.999999999999943
10
192.73734999999999
20
-35.199999999999925
10
193.53634999999997
20
-35.199999999999932
10
193.53634999999997
20
-32.100799999999936
10
192.73734999999999
20
-32.100799999999936
10
192.73734999999999
20
-31.10029999999993
10
178.73734999999996
20
-31.100299999999947
10
178.73734999999996
20
-32.10079999999995
10
177.93634999999995
20
-32.100799999999943
10
177.93634999999995
20
-35.199999999999946
10
178.73734999999996
20
-35.199999999999946
10
178.73734999999996
20
-40.999999999999957
10
177.93634999999995
20
-40.999999999999957
10
177.93634999999995
20
-44.100599999999972
10
178.73734999999996
20
-44.100599999999972
0
LWPOLYLINE
5
136
100
AcDbEntity
8
0
100
AcDbPolyline
90
20
70
1
43
0.0
10
154.63735000000003
20
-31.100299999999955
10
140.63735
20
-31.100299999999976
10
140.63735
20
-32.100799999999978
10
139.83635000000001
20
-32.100799999999971
10
139.83635000000001
20
-35.199999999999967
10
140.63735
20
-35.199999999999974
10
140.63735
20
-40.999999999999986
10
139.83635000000001
20
-40.999999999999986
10
139.83635000000001
20
-44.1006
10
140.63735
20
-44.1006
10
140.63735
20
-45.099600000000002
10
154.63735000000003
20
-45.099599999999995
10
154.63735000000003
20
-44.100599999999986
10
155.43634999999998
20
-44.100599999999986
10
155.43634999999998
20
-40.999999999999979
10
154.63735000000003
20
-40.999999999999979
10
154.63735000000003
20
-35.19999999999996
10
155.43634999999998
20
-35.199999999999967
10
155.43634999999998
20
-32.100799999999971
10
154.63735000000003
20
-32.100799999999964
0
LWPOLYLINE
5
137
100
AcDbEntity
8
0
100
AcDbPolyline
90
20
70
1
43
0.0
10
117.33635
20
-32.100799999999992
10
116.53735
20
-32.100799999999985
10
116.53735
20
-31.100299999999983
10
102.53735
20
-31.100300000000001
10
102.53735
20
-32.100800000000007
10
101.73635000000002
20
-32.100799999999992
10
101.73635000000002
20
-35.199999999999996
10
102.53735
20
-35.200000000000003
10
102.53735
20
-41.000000000000014
10
101.73635000000002
20
-41.000000000000014
10
101.73635000000002
20
-44.100600000000021
10
102.53735
20
-44.100600000000021
10
102.53735
20
-45.099600000000031
10
116.53735
20
-45.099600000000024
10
116.53735
20
-44.100600000000014
10
117.33635
20
-44.100600000000014
10
117.33635
20
-41.000000000000007
10
116.53735
20
-41
10
116.53735
20
-35.199999999999989
10
117.33635
20
-35.199999999999996
0
LWPOLYLINE
5
138
100
AcDbEntity
8
0
100
AcDbPolyline
90
20
70
1
43
0.0
10
79.236249999999998
20
-32.100800000000021
10
78.436849999999993
20
-32.100800000000014
10
78.436849999999993
20
-31.100300000000011
10
64.437549999999987
20
-31.100300000000026
10
64.437549999999987
20
-32.100800000000035
10
63.636749999999992
20
-32.100800000000021
10
63.636749999999992
20
-35.200000000000024
10
64.437549999999987
20
-35.200000000000024
10
64.437549999999987
20
-41.000000000000043
10
63.636749999999992
20
-41.000000000000043
10
63.636749999999992
20
-44.10060000000005
10
64.437549999999987
20
-44.10060000000005
10
64.437549999999987
20
-45.099600000000059
10
78.436849999999993
20
-45.099600000000052
10
78.436849999999993
20
-44.100600000000043
10
79.236249999999998
20
-44.100600000000043
10
79.236249999999998
20
-41.000000000000028
10
78.436849999999993
20
-41.000000000000028
10
78.436849999999993
20
-35.200000000000017
10
79.236249999999998
20
-35.200000000000024
0
LWPOLYLINE
5
139
100
AcDbEntity
8
0
100
AcDbPolyline
90
20
70
1
43
0.0
10
40.336849999999998
20
-45.099600000000073
10
40.336849999999998
20
-44.100600000000071
10
41.13624999999999
20
-44.100600000000071
10
41.13624999999999
20
-41.000000000000057
10
40.336849999999998
20
-41.00000000000005
10
40.336849999999998
20
-35.200000000000038
10
41.13624999999999
20
-35.200000000000045
10
41.13624999999999
20
-32.100800000000049
10
40.336849999999998
20
-32.100800000000049
10
40.336849999999998
20
-31.100300000000036
10
26.33754999999999
20
-31.100300000000054
10
26.33754999999999
20
-32.100800000000056
10
25.536849999999998
20
-32.100800000000049
10
25.536849999999998
20
-35.200000000000045
10
26.33754999999999
20
-35.200000000000053
10
26.33754999999999
20
-41.000000000000071
10
25.536849999999998
20
-41.000000000000071
10
25.536849999999998
20
-44.100600000000078
10
26.33754999999999
20
-44.100600000000078
10
26.33754999999999
20
-45.099600000000081
0
LWPOLYLINE
5
140
100
AcDbEntity
8
0
100
AcDbPolyline
90
20
70
1
43
0.0
10
36.375149999999991
20
-25.050600000000031
10
36.375149999999991
20
-21.950000000000021
10
35.574349999999995
20
-21.950000000000024
10
35.574349999999995
20
-16.150000000000013
10
36.375149999999991
20
-16.150000000000009
10
36.375149999999991
20
-13.050800000000002
10
35.574349999999995
20
-13.050800000000004
10
35.574349999999995
20
-12.050300000000005
10
21.575049999999987
20
-12.050300000000016
10
21.575049999999987
20
-13.05080000000002
10
20.774349999999995
20
-13.050800000000022
10
20.774349999999995
20
-16.15000000000002
10
21.575049999999987
20
-16.150000000000016
10
21.575049999999987
20
-21.950000000000038
10
20.774349999999995
20
-21.950000000000038
10
20.774349999999995
20
-25.050600000000038
10
21.575049999999987
20
-25.050600000000038
10
21.575049999999987
20
-26.049600000000037
10
35.574349999999995
20
-26.049600000000027
10
35.574349999999995
20
-25.050600000000031
0
LWPOLYLINE
5
141
100
AcDbEntity
8
0
100
AcDbPolyline
90
20
70
1
43
0.0
10
111.77435
20
-21.949999999999971
10
111.77435
20
-16.149999999999956
10
112.57534999999999
20
-16.149999999999956
10
112.57534999999999
20
-13.050799999999949
10
111.77435
20
-13.050799999999951
10
111.77435
20
-12.050299999999952
10
97.775349999999989
20
-12.050299999999961
10
97.775349999999989
20
-13.050799999999958
10
96.974349999999987
20
-13.050799999999958
10
96.974349999999987
20
-16.149999999999967
10
97.775349999999989
20
-16.149999999999963
10
97.775349999999989
20
-21.949999999999974
10
96.974349999999987
20
-21.949999999999974
10
96.974349999999987
20
-25.050599999999985
10
97.775349999999989
20
-25.050599999999985
10
97.775349999999989
20
-26.049599999999984
10
111.77435
20
-26.049599999999977
10
111.77435
20
-25.050599999999974
10
112.57534999999999
20
-25.050599999999974
10
112.57534999999999
20
-21.949999999999967
0
LWPOLYLINE
5
142
100
AcDbEntity
8
0
100
AcDbPolyline
90
20
70
1
43
0.0
10
173.97534999999999
20
-25.050599999999932
10
173.97534999999999
20
-26.049599999999931
10
187.97435000000002
20
-26.04959999999992
10
187.97435000000002
20
-25.050599999999925
10
188.77534999999997
20
-25.050599999999925
10
188.77534999999997
20
-21.949999999999914
10
187.97435000000002
20
-21.949999999999918
10
187.97435000000002
20
-16.149999999999906
10
188.77534999999997
20
-16.149999999999906
10
188.77534999999997
20
-13.050799999999896
10
187.97435000000002
20
-13.050799999999898
10
187.97435000000002
20
-12.050299999999899
10
173.97534999999999
20
-12.050299999999908
10
173.97534999999999
20
-13.050799999999905
10
173.17435
20
-13.050799999999906
10
173.17435
20
-16.149999999999913
10
173.97534999999999
20
-16.14999999999991
10
173.97534999999999
20
-21.949999999999925
10
173.17435
20
-21.949999999999925
10
173.17435
20
-25.050599999999932
0
LWPOLYLINE
5
143
100
AcDbEntity
8
0
100
AcDbPolyline
90
20
70
1
43
0.0
10
277.94934999999998
20
-79.100109999999987
10
277.94934999999998
20
-82.200669999999988
10
278.75035000000003
20
-82.200669999999988
10
278.75035000000003
20
-83.199759999999984
10
292.74935000000005
20
-83.199759999999969
10
292.74935000000005
20
-82.200669999999974
10
293.55034999999998
20
-82.200669999999974
10
293.55034999999998
20
-79.100109999999958
10
292.74935000000005
20
-79.100109999999958
10
292.74935000000005
20
-73.298599999999951
10
293.55034999999998
20
-73.298599999999951
10
293.55034999999998
20
-70.200699999999955
10
292.74935000000005
20
-70.200699999999955
10
292.74935000000005
20
-69.200299999999942
10
278.75035000000003
20
-69.200299999999942
10
278.75035000000003
20
-70.200699999999955
10
277.94934999999998
20
-70.200699999999955
10
277.94934999999998
20
-73.298599999999951
10
278.75035000000003
20
-73.298599999999951
10
278.75035000000003
20
-79.100109999999972
0
LWPOLYLINE
5
144
100
AcDbEntity
8
0
100
AcDbPolyline
90
20
70
1
43
0.0
10
292.74935000000005
20
5.9992000000002381
10
292.74935000000005
20
6.9997000000002272
10
278.75035000000003
20
6.9997000000002014
10
278.75035000000003
20
5.999200000000223
10
277.94934999999998
20
5.9992000000002292
10
277.94934999999998
20
2.9000000000002042
10
278.75035000000003
20
2.9000000000002006
10
278.75035000000003
20
-2.8999999999998134
10
277.94934999999998
20
-2.8999999999998138
10
277.94934999999998
20
-6.0005999999998147
10
278.75035000000003
20
-6.0005999999998121
10
278.75035000000003
20
-6.9995999999998046
10
292.74935000000005
20
-6.9995999999997967
10
292.74935000000005
20
-6.000599999999797
10
293.55034999999998
20
-6.0005999999998121
10
293.55034999999998
20
-2.8999999999998134
10
292.74935000000005
20
-2.8999999999998098
10
292.74935000000005
20
2.9000000000002042
10
293.55034999999998
20
2.900000000000198
10
293.55034999999998
20
5.999200000000223
0
LWPOLYLINE
5
145
100
AcDbEntity
8
0
100
AcDbPolyline
90
20
70
1
43
0.0
10
197.49934999999999
20
-2.8999999999998809
10
197.49934999999999
20
2.9000000000001331
10
198.30034999999998
20
2.9000000000001269
10
198.30034999999998
20
5.999200000000152
10
197.49934999999999
20
5.9992000000001671
10
197.49934999999999
20
6.9997000000001561
10
183.50034999999997
20
6.9997000000001304
10
183.50034999999997
20
5.999200000000152
10
182.69935000000001
20
5.9992000000001511
10
182.69935000000001
20
2.9000000000001331
10
183.50034999999997
20
2.9000000000001296
10
183.50034999999997
20
-2.8999999999998844
10
182.69935000000001
20
-2.8999999999998782
10
182.69935000000001
20
-6.0005999999998769
10
183.50034999999997
20
-6.0005999999998743
10
183.50034999999997
20
-6.9995999999998757
10
197.49934999999999
20
-6.9995999999998677
10
197.49934999999999
20
-6.000599999999868
10
198.30034999999998
20
-6.0005999999998831
10
198.30034999999998
20
-2.8999999999998844
0
LWPOLYLINE
5
146
100
AcDbEntity
8
0
100
AcDbPolyline
90
20
70
1
43
0.0
10
107.29835
20
-2.8999999999999377
10
106.49934999999999
20
-2.8999999999999404
10
106.49934999999999
20
-6.0005999999999391
10
107.29835
20
-6.0005999999999364
10
107.29835
20
-6.999599999999929
10
121.29934999999998
20
-6.999599999999921
10
121.29934999999998
20
-6.0005999999999213
10
122.10034999999999
20
-6.0005999999999364
10
122.10034999999999
20
-2.8999999999999382
10
121.29934999999998
20
-2.8999999999999342
10
121.29934999999998
20
2.9000000000000798
10
122.10034999999999
20
2.9000000000000736
10
122.10034999999999
20
5.9992000000000987
10
121.29934999999998
20
5.9992000000001138
10
121.29934999999998
20
6.9997000000001028
10
107.29835
20
6.9997000000000771
10
107.29835
20
5.9992000000000987
10
106.49934999999999
20
5.9992000000001049
10
106.49934999999999
20
2.9000000000000798
10
107.29835
20
2.9000000000000763
0
LWPOLYLINE
5
147
100
AcDbEntity
8
0
100
AcDbPolyline
90
20
70
1
43
0.0
10
45.900149999999996
20
-2.899999999999991
10
45.099349999999987
20
-2.8999999999999875
10
45.099349999999987
20
2.9000000000000266
10
45.900149999999996
20
2.9000000000000203
10
45.900149999999996
20
5.9992000000000454
10
45.099349999999987
20
5.9992000000000605
10
45.099349999999987
20
6.9997000000000495
10
31.100049999999992
20
6.9997000000000238
10
31.100049999999992
20
5.9992000000000445
10
30.299249999999986
20
5.9992000000000516
10
30.299249999999986
20
2.9000000000000266
10
31.100049999999992
20
2.900000000000023
10
31.100049999999992
20
-2.899999999999991
10
30.299249999999986
20
-2.8999999999999937
10
30.299249999999986
20
-6.0005999999999924
10
31.100049999999992
20
-6.0005999999999897
10
31.100049999999992
20
-6.9995999999999912
10
45.099349999999987
20
-6.9995999999999832
10
45.099349999999987
20
-6.0005999999999746
10
45.900149999999996
20
-6.0005999999999897
0
LWPOLYLINE
5
148
100
AcDbEntity
8
0
100
AcDbPolyline
90
20
70
1
43
0.0
10
50.150050000000007
20
5.9992000000000454
10
49.349249999999984
20
5.9992000000000516
10
49.349249999999984
20
2.9000000000000266
10
50.150050000000007
20
2.900000000000023
10
50.150050000000007
20
-2.899999999999991
10
49.349249999999984
20
-2.8999999999999759
10
49.349249999999984
20
-6.0005999999999746
10
50.150050000000007
20
-6.000599999999972
10
50.150050000000007
20
-6.9995999999999725
10
64.149349999999984
20
-6.9995999999999654
10
64.149349999999984
20
-6.0005999999999657
10
64.950149999999994
20
-6.000599999999972
10
64.950149999999994
20
-2.8999999999999733
10
64.149349999999984
20
-2.8999999999999697
10
64.149349999999984
20
2.9000000000000443
10
64.950149999999994
20
2.9000000000000381
10
64.950149999999994
20
5.9992000000000631
10
64.149349999999984
20
5.9992000000000782
10
64.149349999999984
20
6.9997000000000495
10
50.150050000000007
20
6.9997000000000238
0
LWPOLYLINE
5
149
100
AcDbEntity
8
0
100
AcDbPolyline
90
20
70
1
43
0.0
10
126.35035000000001
20
-6.9995999999999201
10
140.34934999999999
20
-6.9995999999999121
10
140.34934999999999
20
-6.0005999999999124
10
141.15035
20
-6.0005999999999187
10
141.15035
20
-2.89999999999992
10
140.34934999999999
20
-2.8999999999999164
10
140.34934999999999
20
2.9000000000000976
10
141.15035
20
2.9000000000000914
10
141.15035
20
5.9992000000001156
10
140.34934999999999
20
5.9992000000001315
10
140.34934999999999
20
6.9997000000001206
10
126.35035000000001
20
6.9997000000000948
10
126.35035000000001
20
5.9992000000000987
10
125.54934999999999
20
5.9992000000001049
10
125.54934999999999
20
2.9000000000000976
10
126.35035000000001
20
2.9000000000000941
10
126.35035000000001
20
-2.8999999999999377
10
125.54934999999999
20
-2.8999999999999226
10
125.54934999999999
20
-6.0005999999999213
10
126.35035000000001
20
-6.0005999999999187
0
LWPOLYLINE
5
150
100
AcDbEntity
8
0
100
AcDbPolyline
90
20
70
1
43
0.0
10
202.55034999999995
20
-6.9995999999998668
10
216.54934999999998
20
-6.9995999999998588
10
216.54934999999998
20
-6.0005999999998592
10
217.35034999999999
20
-6.0005999999998654
10
217.35034999999999
20
-2.8999999999998667
10
216.54934999999998
20
-2.8999999999998631
10
216.54934999999998
20
2.9000000000001509
10
217.35034999999999
20
2.9000000000001447
10
217.35034999999999
20
5.9992000000001688
10
216.54934999999998
20
5.9992000000001848
10
216.54934999999998
20
6.9997000000001739
10
202.55034999999995
20
6.9997000000001481
10
202.55034999999995
20
5.9992000000001697
10
201.74935000000002
20
5.9992000000001759
10
201.74935000000002
20
2.9000000000001509
10
202.55034999999995
20
2.9000000000001473
10
202.55034999999995
20
-2.8999999999998667
10
201.74935000000002
20
-2.8999999999998693
10
201.74935000000002
20
-6.000599999999868
10
202.55034999999995
20
-6.0005999999998654
0
LWPOLYLINE
5
151
100
AcDbEntity
8
0
100
AcDbPolyline
90
20
70
1
43
0.0
10
278.75035000000003
20
-25.050599999999861
10
278.75035000000003
20
-26.049599999999849
10
292.74935000000005
20
-26.049599999999842
10
292.74935000000005
20
-25.050599999999843
10
293.55034999999998
20
-25.050599999999843
10
293.55034999999998
20
-21.949999999999832
10
292.74935000000005
20
-21.949999999999839
10
292.74935000000005
20
-16.149999999999824
10
293.55034999999998
20
-16.149999999999824
10
293.55034999999998
20
-13.050799999999816
10
292.74935000000005
20
-13.050799999999818
10
292.74935000000005
20
-12.050299999999828
10
278.75035000000003
20
-12.050299999999837
10
278.75035000000003
20
-13.050799999999834
10
277.94934999999998
20
-13.050799999999835
10
277.94934999999998
20
-16.149999999999842
10
278.75035000000003
20
-16.149999999999839
10
278.75035000000003
20
-21.949999999999854
10
277.94934999999998
20
-21.949999999999854
10
277.94934999999998
20
-25.050599999999861
0
LWPOLYLINE
5
152
100
AcDbEntity
8
0
100
AcDbPolyline
90
20
70
1
43
0.0
10
274.50035000000003
20
-73.298599999999965
10
274.50035000000003
20
-70.200699999999955
10
273.69935000000004
20
-70.200699999999955
10
273.69935000000004
20
-69.200299999999956
10
259.70035000000001
20
-69.200299999999956
10
259.70035000000001
20
-70.200699999999969
10
258.89934999999997
20
-70.200699999999969
10
258.89934999999997
20
-73.298599999999979
10
259.70035000000001
20
-73.298599999999979
10
259.70035000000001
20
-79.100109999999987
10
258.89934999999997
20
-79.100110000000001
10
258.89934999999997
20
-82.200670000000002
10
259.70035000000001
20
-82.200670000000002
10
259.70035000000001
20
-83.199759999999998
10
273.69935000000004
20
-83.199759999999984
10
273.69935000000004
20
-82.200669999999988
10
274.50035000000003
20
-82.200669999999988
10
274.50035000000003
20
-79.100109999999987
10
273.69935000000004
20
-79.100109999999987
10
273.69935000000004
20
-73.298599999999965
0
LWPOLYLINE
5
153
100
AcDbEntity
8
0
100
AcDbPolyline
90
20
70
1
43
0.0
10
245.12434999999999
20
-26.049599999999877
10
245.12434999999999
20
-25.050599999999879
10
245.92534999999998
20
-25.050599999999879
10
245.92534999999998
20
-21.949999999999868
10
245.12434999999999
20
-21.949999999999875
10
245.12434999999999
20
-16.14999999999986
10
245.92534999999998
20
-16.149999999999856
10
245.92534999999998
20
-13.050799999999851
10
245.12434999999999
20
-13.050799999999851
10
245.12434999999999
20
-12.050299999999854
10
231.12534999999997
20
-12.050299999999863
10
231.12534999999997
20
-13.050799999999869
10
230.32434999999998
20
-13.050799999999871
10
230.32434999999998
20
-16.149999999999871
10
231.12534999999997
20
-16.149999999999864
10
231.12534999999997
20
-21.949999999999889
10
230.32434999999998
20
-21.949999999999889
10
230.32434999999998
20
-25.050599999999889
10
231.12534999999997
20
-25.050599999999889
10
231.12534999999997
20
-26.049599999999884
0
LWPOLYLINE
5
154
100
AcDbEntity
8
0
100
AcDbPolyline
90
20
70
1
43
0.0
10
168.92435
20
-25.050599999999932
10
169.72534999999996
20
-25.050599999999932
10
169.72534999999996
20
-21.949999999999925
10
168.92435
20
-21.949999999999928
10
168.92435
20
-16.149999999999913
10
169.72534999999996
20
-16.14999999999991
10
169.72534999999996
20
-13.050799999999905
10
168.92435
20
-13.050799999999906
10
168.92435
20
-12.050299999999909
10
154.92534999999998
20
-12.050299999999925
10
154.92534999999998
20
-13.050799999999922
10
154.12434999999999
20
-13.050799999999924
10
154.12434999999999
20
-16.149999999999931
10
154.92534999999998
20
-16.149999999999928
10
154.92534999999998
20
-21.949999999999939
10
154.12434999999999
20
-21.949999999999939
10
154.12434999999999
20
-25.05059999999995
10
154.92534999999998
20
-25.05059999999995
10
154.92534999999998
20
-26.049599999999941
10
168.92435
20
-26.049599999999931
0
LWPOLYLINE
5
155
100
AcDbEntity
8
0
100
AcDbPolyline
90
20
70
1
43
0.0
10
92.724350000000001
20
-16.149999999999977
10
93.525350000000003
20
-16.149999999999974
10
93.525350000000003
20
-13.050799999999967
10
92.724350000000001
20
-13.050799999999969
10
92.724350000000001
20
-12.05029999999997
10
78.72505000000001
20
-12.050299999999979
10
78.72505000000001
20
-13.050799999999976
10
77.924249999999972
20
-13.050799999999978
10
77.924249999999972
20
-16.149999999999984
10
78.72505000000001
20
-16.149999999999981
10
78.72505000000001
20
-21.949999999999996
10
77.924249999999972
20
-21.949999999999996
10
77.924249999999972
20
-25.050600000000003
10
78.72505000000001
20
-25.050600000000003
10
78.72505000000001
20
-26.049600000000002
10
92.724350000000001
20
-26.049599999999991
10
92.724350000000001
20
-25.050599999999996
10
93.525350000000003
20
-25.050599999999996
10
93.525350000000003
20
-21.949999999999985
10
92.724350000000001
20
-21.949999999999989
0
LWPOLYLINE
5
156
100
AcDbEntity
8
0
100
AcDbPolyline
90
20
70
1
43
0.0
10
-3.0381200000000073
20
-21.950000000000045
10
-3.0381200000000073
20
-25.050600000000056
10
-2.2374900000000162
20
-25.050600000000056
10
-2.2374900000000153
20
-26.049600000000055
10
11.762049999999995
20
-26.049600000000048
10
11.762049999999995
20
-25.050600000000045
10
12.56124999999999
20
-25.050600000000045
10
12.56124999999999
20
-21.950000000000038
10
11.762049999999995
20
-21.950000000000038
10
11.762049999999995
20
-16.150000000000027
10
12.56124999999999
20
-16.150000000000027
10
12.56124999999999
20
-13.05080000000002
10
11.762049999999995
20
-13.050800000000022
10
11.762049999999995
20
-12.050300000000023
10
-2.2374900000000162
20
-12.050300000000032
10
-2.2374900000000162
20
-13.050800000000029
10
-3.0381200000000073
20
-13.050800000000031
10
-3.0381200000000073
20
-16.150000000000038
10
-2.2374900000000162
20
-16.150000000000034
10
-2.2374900000000162
20
-21.950000000000045
0
LWPOLYLINE
5
157
100
AcDbEntity
8
0
100
AcDbPolyline
90
20
70
1
43
0.0
10
49.86184999999999
20
-64.149800000000113
10
49.86184999999999
20
-63.150700000000114
10
50.661249999999995
20
-63.1507000000001
10
50.661249999999995
20
-60.050100000000093
10
49.86184999999999
20
-60.050100000000093
10
49.86184999999999
20
-54.249900000000082
10
50.661249999999995
20
-54.249900000000082
10
50.661249999999995
20
-51.150700000000072
10
49.86184999999999
20
-51.150700000000072
10
49.86184999999999
20
-50.150400000000076
10
35.862549999999999
20
-50.15040000000009
10
35.862549999999999
20
-51.150700000000086
10
35.061749999999989
20
-51.150700000000093
10
35.061749999999989
20
-54.249900000000096
10
35.862549999999999
20
-54.249900000000096
10
35.862549999999999
20
-60.050100000000114
10
35.061749999999989
20
-60.050100000000114
10
35.061749999999989
20
-63.150700000000121
10
35.862549999999999
20
-63.150700000000121
10
35.862549999999999
20
-64.149800000000113
0
LWPOLYLINE
5
158
100
AcDbEntity
8
0
100
AcDbPolyline
90
20
70
1
43
0.0
10
73.161749999999998
20
-63.150700000000093
10
73.962549999999993
20
-63.150700000000086
10
73.962549999999993
20
-64.149800000000084
10
87.961849999999998
20
-64.149800000000084
10
87.961849999999998
20
-63.150700000000072
10
88.761250000000004
20
-63.150700000000086
10
88.761250000000004
20
-60.050100000000072
10
87.961849999999998
20
-60.050100000000072
10
87.961849999999998
20
-54.249900000000054
10
88.761250000000004
20
-54.249900000000054
10
88.761250000000004
20
-51.150700000000043
10
87.961849999999998
20
-51.150700000000036
10
87.961849999999998
20
-50.150400000000054
10
73.962549999999993
20
-50.150400000000062
10
73.962549999999993
20
-51.150700000000064
10
73.161749999999998
20
-51.150700000000057
10
73.161749999999998
20
-54.249900000000068
10
73.962549999999993
20
-54.249900000000068
10
73.962549999999993
20
-60.050100000000086
10
73.161749999999998
20
-60.050100000000086
0
LWPOLYLINE
5
159
100
AcDbEntity
8
0
100
AcDbPolyline
90
20
70
1
43
0.0
10
126.06235000000001
20
-63.150700000000057
10
126.86134999999999
20
-63.15070000000005
10
126.86134999999999
20
-60.050100000000043
10
126.06235000000001
20
-60.050100000000043
10
126.06235000000001
20
-54.249900000000025
10
126.86134999999999
20
-54.249900000000025
10
126.86134999999999
20
-51.150700000000022
10
126.06235000000001
20
-51.150700000000022
10
126.06235000000001
20
-50.150400000000026
10
112.06235
20
-50.150400000000033
10
112.06235
20
-51.150700000000029
10
111.26134999999999
20
-51.150700000000029
10
111.26134999999999
20
-54.249900000000039
10
112.06235
20
-54.249900000000046
10
112.06235
20
-60.050100000000057
10
111.26134999999999
20
-60.05010000000005
10
111.26134999999999
20
-63.150700000000057
10
112.06235
20
-63.150700000000057
10
112.06235
20
-64.149800000000056
10
126.06235000000001
20
-64.149800000000056
0
LWPOLYLINE
5
160
100
AcDbEntity
8
0
100
AcDbPolyline
90
20
70
1
43
0.0
10
150.16234999999998
20
-64.149800000000027
10
164.16235
20
-64.149800000000027
10
164.16235
20
-63.150700000000022
10
164.96134999999995
20
-63.150700000000029
10
164.96134999999995
20
-60.050100000000022
10
164.16235
20
-60.050100000000022
10
164.16235
20
-54.249900000000004
10
164.96134999999995
20
-54.249900000000004
10
164.96134999999995
20
-51.150699999999993
10
164.16235
20
-51.150699999999986
10
164.16235
20
-50.150399999999998
10
150.16235
20
-50.150400000000005
10
150.16235
20
-51.150700000000001
10
149.36134999999999
20
-51.150700000000001
10
149.36134999999999
20
-54.249900000000011
10
150.16235
20
-54.249900000000011
10
150.16235
20
-60.050100000000022
10
149.36134999999999
20
-60.050100000000029
10
149.36134999999999
20
-63.150700000000043
10
150.16235
20
-63.150700000000029
0
LWPOLYLINE
5
161
100
AcDbEntity
8
0
100
AcDbPolyline
90
20
70
1
43
0.0
10
188.26235
20
-50.150399999999983
10
188.26235
20
-51.150699999999972
10
187.46134999999998
20
-51.150699999999972
10
187.46134999999998
20
-54.249899999999982
10
188.26235
20
-54.249899999999997
10
188.26235
20
-60.0501
10
187.46134999999998
20
-60.050099999999993
10
187.46134999999998
20
-63.150700000000001
10
188.26235
20
-63.150700000000001
10
188.26235
20
-64.149800000000013
10
202.26235
20
-64.149800000000013
10
202.26235
20
-63.150699999999993
10
203.06134999999998
20
-63.150699999999993
10
203.06134999999998
20
-60.050099999999986
10
202.26235
20
-60.050099999999986
10
202.26235
20
-54.249899999999975
10
203.06134999999998
20
-54.249899999999968
10
203.06134999999998
20
-51.150699999999965
10
202.26235
20
-51.150699999999965
10
202.26235
20
-50.150399999999962
0
LWPOLYLINE
5
162
100
AcDbEntity
8
0
100
AcDbPolyline
90
20
70
1
43
0.0
10
247.50534999999999
20
-54.24989999999994
10
248.30634999999998
20
-54.24989999999994
10
248.30634999999998
20
-51.150699999999929
10
247.50534999999999
20
-51.150699999999929
10
247.50534999999999
20
-50.150399999999927
10
233.50634999999997
20
-50.150399999999948
10
233.50634999999997
20
-51.150699999999944
10
232.70534999999998
20
-51.150699999999951
10
232.70534999999998
20
-54.249899999999954
10
233.50634999999997
20
-54.249899999999954
10
233.50634999999997
20
-60.050099999999972
10
232.70534999999998
20
-60.050099999999972
10
232.70534999999998
20
-63.150699999999972
10
233.50634999999997
20
-63.150699999999972
10
233.50634999999997
20
-64.149799999999971
10
247.50534999999999
20
-64.149799999999971
10
247.50534999999999
20
-63.150699999999972
10
248.30634999999998
20
-63.150699999999958
10
248.30634999999998
20
-60.050099999999951
10
247.50534999999999
20
-60.050099999999951
0
LWPOLYLINE
5
163
100
AcDbEntity
8
0
100
AcDbPolyline
90
20
70
1
43
0.0
10
11.761800000000013
20
-69.200299999999999
10
-4.6187400000000176
20
-69.200300000000155
10
-4.6187400000000176
20
-70.200700000000168
10
-5.4193700000000087
20
-70.200700000000154
10
-5.4193700000000087
20
-73.298600000000164
10
-4.6187400000000176
20
-73.298600000000164
10
-4.6187400000000176
20
-79.100110000000171
10
-5.4193700000000087
20
-79.100110000000171
10
-5.4193700000000087
20
-82.200670000000173
10
-4.6187400000000176
20
-82.200670000000173
10
-4.6187400000000167
20
-83.199760000000197
10
11.761800000000013
20
-83.199759999999998
10
11.761800000000013
20
-82.200670000000002
10
12.561199999999983
20
-82.200670000000002
10
12.561199999999983
20
-79.100110000000001
10
11.761800000000013
20
-79.100110000000001
10
11.761800000000013
20
-73.299900000000008
10
12.561199999999983
20
-73.299900000000008
10
12.561199999999983
20
-70.200700000000012
10
11.761800000000013
20
-70.200700000000012
0
LWPOLYLINE
5
164
100
AcDbEntity
8
0
100
AcDbPolyline
90
20
70
1
43
0.0
10
-7.80079999999999
20
2.8999999999999915
10
-7.0000000000000018
20
2.8999999999999915
10
-7.0000000000000018
20
-2.9000000000000092
10
-7.80079999999999
20
-2.9000000000000092
10
-7.80079999999999
20
-6.0006000000000004
10
-7.0000000000000018
20
-6.0006000000000004
10
-7.0000000000000009
20
-7.0000000000000009
10
7.0000000000000009
20
-7.0000000000000009
10
7.0000000000000009
20
-6.0006000000000004
10
7.8000999999999987
20
-6.0006000000000004
10
7.8000999999999987
20
-2.9000000000000092
10
7.0000000000000009
20
-2.9000000000000092
10
7.0000000000000009
20
2.8999999999999915
10
7.8000999999999987
20
2.8999999999999915
10
7.8000999999999987
20
5.999200000000009
10
7.0000000000000009
20
5.999200000000009
10
7.0000000000000009
20
7.0000000000000009
10
-7.0000000000000009
20
7.0000000000000009
10
-7.0000000000000018
20
5.999200000000009
10
-7.80079999999999
20
5.999200000000009
0
CIRCLE
5
165
100
AcDbEntity
8
0
100
AcDbCircle
10
-4.4999999999999911
20
14.000000000000053
30
0
40
1.7000000000000004
210
0
220
0
230
1
0
CIRCLE
5
166
100
AcDbEntity
8
0
100
AcDbCircle
10
142.875
20
-90.200000000000045
30
0
40
1.6999999999999993
210
0
220
0
230
1
0
CIRCLE
5
167
100
AcDbEntity
8
0
100
AcDbCircle
10
-4.4999999999999956
20
-90.200000000000074
30
0
40
1.6999999999999997
210
0
220
0
230
1
0
CIRCLE
5
168
100
AcDbEntity
8
0
100
AcDbCircle
10
142.87500000000003
20
14.000000000000004
30
0
40
1.6999999999999993
210
0
220
0
230
1
0
CIRCLE
5
169
100
AcDbEntity
8
0
100
AcDbCircle
10
290.25000000000006
20
14.000000000000007
30
0
40
1.7000000000000171
210
0
220
0
230
1
0
CIRCLE
5
170
100
AcDbEntity
8
0
100
AcDbCircle
10
290.25000000000006
20
-90.200000000000045
30
0
40
1.7000000000000171
210
0
220
0
230
1
0
LWPOLYLINE
5
171
100
AcDbEntity
8
0
100
AcDbPolyline
90
52
70
1
43
0.0
10
-0.42078438912575677
20
13.500000000000004
10
83.400000000000048
20
13.499999999999979
42
-0.26556443707463195
10
85.812307692307712
20
12.121538461538492
42
0.57142857142856618
10
92.187692307692316
20
12.12153846153849
42
-0.26556443707463318
10
94.599999999999994
20
13.499999999999998
10
138.7957843891258
20
13.500000000000007
42
0.34543029620376364
10
140.25264710729516
20
14.642857142857151
42
-0.7844645405527354
10
145.4973528927049
20
14.642857142857151
42
0.34543029620376364
10
146.95421561087426
20
13.500000000000007
10
191.15000000000006
20
13.5
42
-0.26556443707463195
10
193.56230769230777
20
12.121538461538442
42
0.57142857142856418
10
199.93769230769234
20
12.121538461538474
42
-0.26556443707463734
10
202.35000000000002
20
13.5
10
286.1707843891258
20
13.499999999999989
42
0.34543029620376969
10
287.62764710729522
20
14.64285714285716
42
-0.82552669575022719
10
292.9233055402255
20
14.378731420138058
42
0.20855376347964549
10
293.5520845005002
20
13.357636719359336
42
-0.1240325891392695
10
294.45044722589535
20
12.325798252629578
42
0.14315099462662725
10
295.87153846153848
20
10.812307692307691
42
-0.26556443707465577
10
297.25000000000006
20
8.3999999999999986
10
297.25000000000011
20
-84.600000000000009
42
-0.26556443707465527
10
295.87153846153853
20
-87.012307692307743
42
0.1431509946266443
10
294.4504472258954
20
-88.525798252629585
42
-0.12403258913928901
10
293.5520845005002
20
-89.557636719359394
42
0.20855376347965893
10
292.9233055402255
20
-90.578731420138098
42
-0.82552669575023407
10
287.62764710729522
20
-90.842857142857156
42
0.34543029620376314
10
286.1707843891258
20
-89.699999999999989
10
202.34999999999999
20
-89.699999999999989
42
-0.26556443707463212
10
199.93769230769234
20
-88.321538461538509
42
0.57142857142855374
10
193.56230769230768
20
-88.321538461538523
42
-0.26556443707463651
10
191.15000000000009
20
-89.699999999999974
10
146.95421561087426
20
-89.699999999999989
42
0.34543029620378612
10
145.49735289270487
20
-90.842857142857156
42
-0.78446454055274406
10
140.25264710729516
20
-90.842857142857156
42
0.34543029620376886
10
138.79578438912577
20
-89.699999999999989
10
94.599999999999994
20
-89.700000000000003
42
-0.2655644370746385
10
92.187692307692288
20
-88.321538461538466
42
0.57142857142856207
10
85.812307692307726
20
-88.321538461538495
42
-0.26556443707463295
10
83.400000000000048
20
-89.700000000000003
10
-0.42078438912573868
20
-89.699999999999989
42
0.34543029620377041
10
-1.8776471072951231
20
-90.842857142857156
42
-0.8255266957502464
10
-7.1733055402254777
20
-90.578731420138055
42
0.20855376347967342
10
-7.8020845005001878
20
-89.557636719359337
42
-0.12403258913926972
10
-8.7004472258953598
20
-88.525798252629571
42
0.14315099462664563
10
-10.121538461538485
20
-87.012307692307687
42
-0.26556443707463795
10
-11.500000000000028
20
-84.599999999999994
10
-11.500000000000023
20
8.4000000000000341
42
-0.2655644370746385
10
-10.121538461538471
20
10.812307692307733
42
0.14315099462664688
10
-8.7004472258953545
20
12.32579825262957
42
-0.12403258913927694
10
-7.8020845005001789
20
13.357636719359343
42
0.20855376347967045
10
-7.1733055402254688
20
14.378731420138065
42
-0.82552669575024074
10
-1.877647107295124
20
14.642857142857162
42
0.34543029620376958
0
LWPOLYLINE
5
172
100
AcDbEntity
8
0
100
AcDbPolyline
90
58
70
1
43
0.0
10
270.89234999999996
20
-38.599699999999892
10
270.89234999999996
20
-35.574599999999997
10
271.31830000000002
20
-35.574599999999997
10
271.31830000000002
20
-21.575299999999995
10
270.31729999999999
20
-21.575299999999995
10
270.31729999999999
20
-20.774499999999996
10
268.93734999999998
20
-20.774499999999996
10
268.93734999999998
20
-20.049900000000001
10
269.84730000000002
20
-20.049900000000001
10
269.84730000000002
20
-18.324499999999997
10
270.76830000000007
20
-18.324499999999997
10
270.76830000000007
20
-15.025300000000001
10
269.84730000000002
20
-15.025300000000001
10
269.84730000000002
20
-13.300200000000002
10
269.73634999999996
20
-13.300200000000002
10
269.73634999999996
20
-13.050799999999834
10
268.93734999999998
20
-13.050799999999835
10
268.93734999999998
20
-12.050299999999845
10
254.93735000000001
20
-12.050299999999854
10
254.93735000000001
20
-13.050799999999851
10
254.13634999999996
20
-13.050799999999853
10
254.13634999999996
20
-16.14999999999986
10
254.93735000000001
20
-16.149999999999856
10
254.93735000000001
20
-21.949999999999868
10
254.13634999999996
20
-21.949999999999868
10
254.13634999999996
20
-25.050599999999879
10
254.93735000000001
20
-25.050599999999879
10
254.93735000000001
20
-26.04959999999987
10
257.31730000000005
20
-26.04959999999987
10
257.31730000000005
20
-31.10029999999988
10
235.88730000000001
20
-31.100300000000001
10
235.88730000000001
20
-32.100800000000007
10
235.08629999999997
20
-32.100800000000007
10
235.08629999999997
20
-35.199999999999996
10
235.88730000000001
20
-35.199999999999996
10
235.88730000000001
20
-41
10
235.08629999999997
20
-41
10
235.08629999999997
20
-44.1006
10
235.88730000000001
20
-44.1006
10
235.88730000000001
20
-45.099600000000002
10
241.24234999999999
20
-45.099600000000002
10
241.24234999999999
20
-46.06979999999993
10
244.54134999999997
20
-46.069799999999923
10
244.54134999999997
20
-45.099600000000002
10
261.79334999999998
20
-45.099599999999917
10
261.79334999999998
20
-44.100599999999908
10
262.59234999999995
20
-44.100599999999908
10
262.59234999999995
20
-43.849699999999999
10
263.31734999999998
20
-43.849699999999999
10
263.31734999999998
20
-44.86959999999992
10
265.04235
20
-44.86959999999992
10
265.04235
20
-46.069799999999915
10
268.34334999999999
20
-46.069799999999901
10
268.34334999999999
20
-44.869599999999906
10
270.06835000000001
20
-44.869599999999906
10
270.06835000000001
20
-42.124700000000004
10
270.76830000000007
20
-42.124700000000004
10
270.76830000000007
20
-38.599699999999892
0
ENDSEC
0
SECTION
2
OBJECTS
0
DICTIONARY
5
C
100
AcDbDictionary
3
ACAD_GROUP
350
D
3
ACAD_MLINESTYLE
350
17
0
DICTIONARY
5
D
100
AcDbDictionary
0
DICTIONARY
5
1A
330
C
100
AcDbDictionary
0
DICTIONARY
5
17
100
AcDbDictionary
0
ENDSEC
0
EOF
